# File created by Blade
# Date/Time:  Wed Jan 21 16:20:09 2015
#---------------------------------------------------------
:version 1.10
:name HOM
:units
  mass 1.0
  length 1.000000
  angle deg
:documentation
     Acclaim Skeleton File
:root
   axis xyz
   order TX TY TZ RX RY RZ
   position 0.000000 0.000000 0.000000
   orientation 0 0 0
:bonedata
   begin
      id 1
      name Spine_dum
      direction 0.000000 1.000000 0.000000
      length 7.067664
      axis 0.0 0.0 0.0 xyz
   end
   begin
      id 2
      name LeftUpLeg_dum
      direction 1.000000 0.000000 0.000000
      length 4.013002
      axis 0.0 0.0 0.0 xyz
   end
   begin
      id 3
      name RightUpLeg_dum
      direction -1.000000 0.000000 0.000000
      length 4.013002
      axis 0.0 0.0 0.0 xyz
   end
   begin
      id 4
      name Spine
      direction 0.000000 1.000000 0.000000
      length 0.000000
      axis 0.0 0.0 0.0 xyz
      dof rx ry rz
   end
   begin
      id 5
      name Spine_dum1
      direction 0.000000 1.000000 0.000000
      length 15.039886
      axis 0.0 0.0 0.0 xyz
   end
   begin
      id 6
      name Spine_dum2
      direction 0.000000 1.000000 0.000000
      length 10.530368
      axis 0.0 0.0 0.0 xyz
   end
   begin
      id 7
      name Spine_dum3
      direction 0.000000 1.000000 0.000000
      length 10.530368
      axis 0.0 0.0 0.0 xyz
   end
   begin
      id 8
      name Head
      direction 0.000000 1.000000 0.000000
      length 4.527550
      axis 0.0 0.0 0.0 xyz
      dof rx ry rz
   end
   begin
      id 9
      name LeftShoulder
      direction 1.000000 0.000000 0.000000
      length 7.028855
      axis 0.0 0.0 -90.0 xyz
      dof rx ry rz
   end
   begin
      id 10
      name LeftArm
      direction 1.000000 0.000000 0.000000
      length 10.797705
      axis 0.0 0.0 -90.0 xyz
      dof rx ry rz
   end
   begin
      id 11
      name LeftForeArm
      direction 1.000000 0.000000 0.000000
      length 7.907442
      axis 0.0 0.0 -90.0 xyz
      dof ry rz rx
   end
   begin
      id 12
      name LeftHand
      direction 0.000000 0.000000 0.000000
      length 0.000000
      axis 0.0 0.0 -90.0 xyz
      dof rx ry rz
   end
   begin
      id 13
      name LeftHand_dum1
      direction 0.000000 0.000000 0.000000
      length 0.000000
      axis 0.0 0.0 -90.0 xyz
   end
   begin
      id 14
      name LeftHand_dum2
      direction 1.000000 0.000000 0.000000
      length 3.937000
      axis 0.0 0.0 -90.0 xyz
   end
   begin
      id 15
      name LeftHandThumb1
      direction 0.000000 0.000000 1.000000
      length 3.937000
      axis 0.0 0.0 -90.0 xyz
      dof rx rz ry
   end
   begin
      id 16
      name RightShoulder
      direction -1.000000 0.000000 0.000000
      length 7.028855
      axis 0.0 0.0 90.0 xyz
      dof rx ry rz
   end
   begin
      id 17
      name RightArm
      direction -1.000000 0.000000 0.000000
      length 10.797705
      axis 0.0 0.0 90.0 xyz
      dof rx ry rz
   end
   begin
      id 18
      name RightForeArm
      direction -1.000000 0.000000 0.000000
      length 7.907442
      axis 0.0 0.0 90.0 xyz
      dof ry rz rx
   end
   begin
      id 19
      name RightHand
      direction 0.000000 0.000000 0.000000
      length 0.000000
      axis 0.0 0.0 90.0 xyz
      dof rx ry rz
   end
   begin
      id 20
      name RightHand_dum1
      direction 0.000000 0.000000 0.000000
      length 0.000000
      axis 0.0 0.0 90.0 xyz
   end
   begin
      id 21
      name RightHand_dum2
      direction -1.000000 0.000000 0.000000
      length 3.937000
      axis 0.0 0.0 90.0 xyz
   end
   begin
      id 22
      name RightHandThumb1
      direction 0.000000 0.000000 1.000000
      length 3.937000
      axis 0.0 0.0 90.0 xyz
      dof rx rz ry
   end
   begin
      id 23
      name LeftUpLeg
      direction 0.000000 -1.000000 0.000000
      length 16.899758
      axis 0.0 0.0 0.0 xyz
      dof rx ry rz
   end
   begin
      id 24
      name LeftLeg
      direction 0.000000 -1.000000 0.000000
      length 17.389183
      axis 0.0 0.0 0.0 xyz
      dof rx ry rz
   end
   begin
      id 25
      name LeftFoot
      direction 0.000000 -0.258819 0.965926
      length 4.924528
      axis 15.0 0.0 0.0 xyz
      dof rx ry rz
   end
   begin
      id 26
      name LeftToeBase
      direction 0.000000 0.000000 1.000000
      length 2.952750
      axis 0.0 0.0 0.0 xyz
      dof rx ry rz
   end
   begin
      id 27
      name RightUpLeg
      direction 0.000000 -1.000000 0.000000
      length 16.899758
      axis 0.0 0.0 0.0 xyz
      dof rx ry rz
   end
   begin
      id 28
      name RightLeg
      direction 0.000000 -1.000000 0.000000
      length 17.389183
      axis 0.0 0.0 0.0 xyz
      dof rx ry rz
   end
   begin
      id 29
      name RightFoot
      direction 0.000000 -0.258819 0.965926
      length 4.924528
      axis 15.0 0.0 0.0 xyz
      dof rx ry rz
   end
   begin
      id 30
      name RightToeBase
      direction 0.000000 0.000000 1.000000
      length 2.952750
      axis 0.0 0.0 0.0 xyz
      dof rx ry rz
   end
:hierarchy
   begin
      root Spine_dum LeftUpLeg_dum RightUpLeg_dum
      Spine_dum Spine
      LeftUpLeg_dum LeftUpLeg
      RightUpLeg_dum RightUpLeg
      Spine Spine_dum1 Spine_dum2 Spine_dum3
      Spine_dum1 Head
      Spine_dum2 LeftShoulder
      Spine_dum3 RightShoulder
      LeftShoulder LeftArm
      LeftArm LeftForeArm
      LeftForeArm LeftHand
      LeftHand LeftHand_dum1 LeftHand_dum2
      LeftHand_dum1 LeftHandThumb1
      RightShoulder RightArm
      RightArm RightForeArm
      RightForeArm RightHand
      RightHand RightHand_dum1 RightHand_dum2
      RightHand_dum1 RightHandThumb1
      LeftUpLeg LeftLeg
      LeftLeg LeftFoot
      LeftFoot LeftToeBase
      RightUpLeg RightLeg
      RightLeg RightFoot
      RightFoot RightToeBase
   end

# File created by Blade
# Date/Time:  Wed Jan 21 16:20:01 2015
# Frame Rate: 120.000 fps
#------------------------------------------------------
:FULLY-SPECIFIED
:DEGREES
1
root 19.639833 35.554908 -21.877312 -175.999571 -1.306238 -177.235404
Spine -14.315738 0.054361 3.811479
Head 8.991612 0.653973 -0.997776
LeftShoulder -14.703612 -29.849204 17.985907
LeftArm 7.478045 4.504965 -4.983894
LeftForeArm 7.592552 0.000000 -3.058487
LeftHand -11.794605 -0.000000 -3.672369
LeftHandThumb1 -26.253704 0.000000 33.147579
RightShoulder -11.732696 -4.748168 -9.702949
RightArm 9.254014 38.034294 9.006445
RightForeArm -36.802947 -0.000000 4.587329
RightHand -8.481314 -0.000000 8.520473
RightHandThumb1 -24.326973 -0.000000 -32.862282
LeftUpLeg 5.577214 4.661906 5.024510
LeftLeg -12.966241 -0.000000 0.000000
LeftFoot 1.280663 23.839545 6.665588
LeftToeBase -145.160329 -0.000000 0.000000
RightUpLeg 4.267287 -8.795587 1.049027
RightLeg -2.977426 -0.000000 0.000000
RightFoot -20.855594 -20.458980 20.082383
RightToeBase 22.904220 -0.000000 -0.000000
2
root 19.636371 35.555251 -21.876446 -175.998916 -1.317433 -177.248702
Spine -14.322428 0.046000 3.798602
Head 9.032423 0.649955 -1.002450
LeftShoulder -14.692742 -29.860074 17.981715
LeftArm 7.468070 4.507994 -4.974693
LeftForeArm 7.590492 -0.000000 -3.049256
LeftHand -11.790372 -0.000000 -3.665838
LeftHandThumb1 -26.253704 0.000000 33.147579
RightShoulder -11.728047 -4.754030 -9.697538
RightArm 9.242608 38.050725 8.997814
RightForeArm -36.849869 -0.000000 4.581998
RightHand -8.452005 -0.000000 8.478773
RightHandThumb1 -24.326973 -0.000000 -32.862282
LeftUpLeg 5.561003 4.641398 5.005337
LeftLeg -12.945513 -0.000000 0.000000
LeftFoot 1.284576 23.859331 6.689581
LeftToeBase -145.142646 -0.000000 0.000000
RightUpLeg 4.260527 -8.801336 1.029323
RightLeg -2.964749 -0.000000 0.000000
RightFoot -20.862228 -20.463880 20.075421
RightToeBase 22.892642 -0.000000 -0.000000
3
root 19.632754 35.555826 -21.873963 -176.000351 -1.338823 -177.259403
Spine -14.317620 0.032148 3.787006
Head 9.057147 0.649718 -1.001343
LeftShoulder -14.674633 -29.889274 17.972350
LeftArm 7.450040 4.521903 -4.961027
LeftForeArm 7.597793 0.000000 -3.031149
LeftHand -11.813378 -0.000000 -3.650530
LeftHandThumb1 -26.253704 0.000000 33.147579
RightShoulder -11.730703 -4.749566 -9.684885
RightArm 9.229332 38.032391 8.977969
RightForeArm -36.813063 -0.000000 4.604384
RightHand -8.496673 0.000000 8.497960
RightHandThumb1 -24.326973 -0.000000 -32.862282
LeftUpLeg 5.534136 4.596625 4.987367
LeftLeg -12.904838 -0.000000 0.000000
LeftFoot 1.281468 23.881582 6.714572
LeftToeBase -145.123190 -0.000000 0.000000
RightUpLeg 4.253663 -8.817902 1.012482
RightLeg -2.949156 -0.000000 0.000000
RightFoot -20.851759 -20.456968 20.091706
RightToeBase 22.858238 -0.000000 -0.000000
4
root 19.630549 35.556589 -21.871331 -175.999008 -1.357574 -177.263732
Spine -14.317137 0.014154 3.775842
Head 9.081155 0.642422 -0.989750
LeftShoulder -14.660123 -29.907565 17.971373
LeftArm 7.435034 4.526492 -4.948164
LeftForeArm 7.582918 -0.000000 -3.029444
LeftHand -11.783225 0.000000 -3.626937
LeftHandThumb1 -26.253704 0.000000 33.147579
RightShoulder -11.726003 -4.720252 -9.666964
RightArm 9.212860 37.995808 8.948757
RightForeArm -36.808475 0.000000 4.588560
RightHand -8.463878 -0.000000 8.467267
RightHandThumb1 -24.326973 -0.000000 -32.862282
LeftUpLeg 5.510621 4.551134 4.976855
LeftLeg -12.879102 -0.000000 0.000000
LeftFoot 1.301530 23.918712 6.740934
LeftToeBase -145.121635 -0.000000 0.000000
RightUpLeg 4.234350 -8.802665 1.007649
RightLeg -2.919888 -0.000000 0.000000
RightFoot -20.878509 -20.479516 20.109834
RightToeBase 22.868996 -0.000000 -0.000000
5
root 19.626994 35.557525 -21.868265 -175.995727 -1.375693 -177.272944
Spine -14.315861 0.011670 3.756099
Head 9.113711 0.685776 -0.958223
LeftShoulder -14.643845 -29.916952 17.963361
LeftArm 7.441006 4.498663 -4.947463
LeftForeArm 7.592093 -0.000000 -3.036206
LeftHand -11.768565 -0.000000 -3.583799
LeftHandThumb1 -26.253704 0.000000 33.147579
RightShoulder -11.739756 -4.719626 -9.642777
RightArm 9.209759 38.001260 8.941084
RightForeArm -36.876711 -0.000000 4.567776
RightHand -8.414037 -0.000000 8.404183
RightHandThumb1 -24.326973 -0.000000 -32.862282
LeftUpLeg 5.477606 4.508315 4.959367
LeftLeg -12.838897 -0.000000 0.000000
LeftFoot 1.307309 23.945697 6.770050
LeftToeBase -145.093724 -0.000000 0.000000
RightUpLeg 4.211733 -8.789068 0.996162
RightLeg -2.885174 -0.000000 0.000000
RightFoot -20.918569 -20.541255 20.050544
RightToeBase 22.992723 -0.000000 -0.000000
6
root 19.622825 35.558455 -21.864275 -175.988319 -1.397264 -177.287230
Spine -14.320444 -0.000597 3.726140
Head 9.160666 0.662969 -0.945209
LeftShoulder -14.623818 -29.924297 17.969241
LeftArm 7.433798 4.479273 -4.957215
LeftForeArm 7.581664 0.000000 -3.041816
LeftHand -11.745774 -0.000000 -3.512059
LeftHandThumb1 -26.253704 0.000000 33.147579
RightShoulder -11.738533 -4.729775 -9.604696
RightArm 9.189599 37.989351 8.911812
RightForeArm -36.802761 -0.000000 4.589373
RightHand -8.483919 -0.000000 8.407683
RightHandThumb1 -24.326973 -0.000000 -32.862282
LeftUpLeg 5.436843 4.441944 4.933218
LeftLeg -12.795840 -0.000000 0.000000
LeftFoot 1.341446 23.997391 6.819795
LeftToeBase -145.090058 -0.000000 0.000000
RightUpLeg 4.177975 -8.798120 0.975320
RightLeg -2.844908 -0.000000 0.000000
RightFoot -20.916176 -20.534066 20.107839
RightToeBase 22.799229 -0.000000 -0.000000
7
root 19.618453 35.560246 -21.859811 -175.975364 -1.422494 -177.302004
Spine -14.335225 -0.013002 3.693444
Head 9.235665 0.675483 -0.915958
LeftShoulder -14.589343 -29.954294 17.971553
LeftArm 7.410478 4.496125 -4.964118
LeftForeArm 7.534955 -0.000000 -3.043486
LeftHand -11.690125 -0.000000 -3.378784
LeftHandThumb1 -26.253704 0.000000 33.147579
RightShoulder -11.731358 -4.721668 -9.572585
RightArm 9.158984 37.977354 8.892718
RightForeArm -36.848899 -0.000000 4.575647
RightHand -8.453049 -0.000000 8.340574
RightHandThumb1 -24.326973 -0.000000 -32.862282
LeftUpLeg 5.384447 4.392221 4.905243
LeftLeg -12.746366 -0.000000 0.000000
LeftFoot 1.366953 24.033604 6.865523
LeftToeBase -145.120343 -0.000000 0.000000
RightUpLeg 4.128951 -8.803893 0.956811
RightLeg -2.785433 -0.000000 0.000000
RightFoot -20.932571 -20.542394 20.129092
RightToeBase 22.765187 -0.000000 -0.000000
8
root 19.613213 35.561455 -21.855457 -175.985421 -1.427473 -177.317597
Spine -14.312551 -0.020881 3.658707
Head 9.281596 0.686084 -0.876060
LeftShoulder -14.565914 -29.973994 17.969362
LeftArm 7.387993 4.496649 -4.965761
LeftForeArm 7.518905 0.000000 -3.022934
LeftHand -11.595303 0.000000 -3.235428
LeftHandThumb1 -26.253704 0.000000 33.147579
RightShoulder -11.690944 -4.671683 -9.538304
RightArm 9.080293 37.960077 8.842515
RightForeArm -36.805905 -0.000000 4.607836
RightHand -8.477719 0.000000 8.355251
RightHandThumb1 -24.326973 -0.000000 -32.862282
LeftUpLeg 5.359640 4.342599 4.874674
LeftLeg -12.699113 -0.000000 0.000000
LeftFoot 1.398570 24.094198 6.918836
LeftToeBase -145.161168 -0.000000 0.000000
RightUpLeg 4.101543 -8.779170 0.932575
RightLeg -2.720816 -0.000000 0.000000
RightFoot -20.975952 -20.572146 20.066957
RightToeBase 23.051998 -0.000000 -0.000000
9
root 19.607498 35.562986 -21.851978 -175.997342 -1.452663 -177.331378
Spine -14.291355 -0.033226 3.622503
Head 9.350061 0.708983 -0.840872
LeftShoulder -14.539955 -29.962605 17.954868
LeftArm 7.398467 4.492060 -4.971466
LeftForeArm 7.508371 0.000000 -3.018266
LeftHand -11.501210 -0.000000 -2.951624
LeftHandThumb1 -26.253704 0.000000 33.147579
RightShoulder -11.676475 -4.667899 -9.492360
RightArm 9.038044 37.950574 8.809981
RightForeArm -36.794374 -0.000000 4.594185
RightHand -8.436677 -0.000000 8.309268
RightHandThumb1 -24.326973 -0.000000 -32.862282
LeftUpLeg 5.333030 4.264717 4.845481
LeftLeg -12.649044 -0.000000 0.000000
LeftFoot 1.407082 24.170012 6.944176
LeftToeBase -145.208436 -0.000000 0.000000
RightUpLeg 4.079829 -8.793169 0.907692
RightLeg -2.661175 -0.000000 0.000000
RightFoot -20.993589 -20.573903 20.068269
RightToeBase 22.911956 -0.000000 -0.000000
10
root 19.601840 35.565033 -21.846893 -176.008421 -1.465265 -177.340119
Spine -14.271717 -0.038123 3.589271
Head 9.431120 0.689276 -0.811582
LeftShoulder -14.510036 -29.960344 17.935578
LeftArm 7.406776 4.514352 -4.972325
LeftForeArm 7.545699 -0.000000 -3.001101
LeftHand -11.452357 0.000000 -2.613891
LeftHandThumb1 -26.253704 0.000000 33.147579
RightShoulder -11.657851 -4.659709 -9.445658
RightArm 9.008975 37.955184 8.798280
RightForeArm -36.796601 0.000000 4.592462
RightHand -8.439434 0.000000 8.255632
RightHandThumb1 -24.326973 -0.000000 -32.862282
LeftUpLeg 5.300748 4.220014 4.820428
LeftLeg -12.590252 -0.000000 0.000000
LeftFoot 1.420483 24.225580 6.992315
LeftToeBase -145.200792 -0.000000 0.000000
RightUpLeg 4.048764 -8.790809 0.888290
RightLeg -2.589959 -0.000000 0.000000
RightFoot -21.015382 -20.579119 20.087645
RightToeBase 22.932480 -0.000000 -0.000000
